<svg xmlns="http://www.w3.org/2000/svg" width="26" height="26" viewBox="0 0 26 26"><g transform="translate(0 -1026.362)"><circle cx="13" cy="1039.362" r="13" fill="#ef4c45"/><path style="line-height:normal;text-indent:0;text-align:start;text-decoration-line:none;text-decoration-style:solid;text-decoration-color:#000;text-transform:none;block-progression:tb;isolation:auto;mix-blend-mode:normal" fill="#fff" fill-rule="evenodd" d="m 8,1.9941406 c 1.5351591,0 3.069855,0.5874853 4.244141,1.7617188 2.348549,2.3485737 2.348564,6.1397075 0,8.4882816 -2.3485645,2.348573 -6.1397174,2.348573 -8.4882816,0 -2.3485492,-2.3485741 -2.3485568,-6.1397079 0,-8.4882816 C 4.9301415,2.5816259 6.4648409,1.9941406 8,1.9941406 Z m 2.453125,3.0273438 c -0.130039,0.00413 -0.253348,0.058777 -0.34375,0.1523437 L 7.9960938,7.2949219 5.875,5.1796875 C 5.7801378,5.0837541 5.6505361,5.030223 5.515625,5.03125 5.0694877,5.0348589 4.8510549,5.5766217 5.1699219,5.8886719 L 7.2910156,8.0039062 5.1757812,10.125 c -0.4908308,0.471254 0.2357771,1.197862 0.7070313,0.707031 L 7.9980469,8.7089844 10.119141,10.824219 c 0.471254,0.490841 1.197872,-0.235777 0.707031,-0.707031 L 8.7050781,8.0019531 10.818359,5.8808594 c 0.329659,-0.318465 0.09284,-0.8756947 -0.365234,-0.859375 z" color="#000" font-family="sans-serif" font-weight="400" overflow="visible" transform="translate(5 1031.362)" white-space="normal"/></g></svg>